# xmcd
#
# Track frame offsets:
#	150
#	18067
#	33921
#	51966
#	68781
#	89189
#	116689
#	129557
#	147391
#	167769
#	184381
#
# Disc length: 2685 seconds
#
# Revision: 2
# Processed by: cddbd v1.5.2PL0 Copyright (c) Steve Scherf et al.
# Submitted via: EZCDAudioConverter 4.0.5.1
#
DISCID=9e0a7b0b
DTITLE=Kenny Rogers - You Can't Make Old Friends 
DYEAR=2013
DGENRE=Country
TTITLE0=You Can't Make Old Friends (Duet With Dolly Parton) 
TTITLE1=All I Need Is One 
TTITLE2=You Had To Be There 
TTITLE3='Merica
TTITLE4=Turn This World Around 
TTITLE5=Dreams of the San Joaquin
TTITLE6=Don't Leave Me In The Night Time (feat. Buckwheat Zydeco)
TTITLE7=Look At You
TTITLE8=Neon Horses
TTITLE9=When You Love Someone
TTITLE10=It's Gonna Be Easy Now
EXTD=
EXTT0=
EXTT1=
EXTT2=
EXTT3=
EXTT4=
EXTT5=
EXTT6=
EXTT7=
EXTT8=
EXTT9=
EXTT10=
PLAYORDER=
